<svg width="27" height="24" viewBox="0 0 27 24" fill="none" xmlns="http://www.w3.org/2000/svg">
<path d="M22.6874 13.7675C23.0948 11.7888 23.5016 9.80764 23.9078 7.82406C24.1508 6.63575 24.3938 5.45108 24.6298 4.25911C24.7601 3.5965 25.0331 3.05984 25.7903 3.21683C26.5476 3.37381 26.6163 3.93054 26.4719 4.62236C25.8009 7.82954 25.1599 11.0404 24.496 14.2476C24.2582 15.3994 23.8796 15.7078 22.735 15.7078C18.4204 15.7078 14.1065 15.7078 9.79319 15.7078H8.71368L8.93557 16.94H18.4169C19.7958 16.94 21.1747 16.9491 22.5536 16.94C23.2386 16.94 23.744 17.1736 23.737 17.9476C23.737 18.6942 23.1963 18.8803 22.5747 18.8803C17.9679 18.8803 13.361 18.8895 8.75419 18.8803C7.67997 18.8803 7.3119 18.4824 7.05127 17.1955C6.08388 12.441 5.12002 7.68656 4.15967 2.93207C4.0998 2.63818 4.01704 2.34977 3.92194 1.96462C3.04143 1.96462 2.16092 1.95549 1.29273 1.96462C0.60241 1.97557 -0.0104315 1.78208 0.000134649 0.964316C0.0107008 0.146549 0.644675 -0.0104325 1.32619 0.00051974C2.2067 0.0151227 3.08722 0.00051974 3.96773 0.00051974C5.11239 0.011472 5.55265 0.380198 5.78334 1.54661C6.5488 5.28984 7.31191 9.03307 8.07267 12.7763C8.13783 13.0994 8.22412 13.417 8.30865 13.7675H22.6874Z" fill="#D5D5D5"/>
<path d="M12 7.20501H14.1573C14.1573 6.27257 14.1754 5.43157 14.1492 4.59282C14.135 4.15257 14.2583 3.98323 14.6612 4.0013C15.2824 4.02952 15.9055 4.02387 16.5266 4.0013C16.8821 3.99001 16.9932 4.14579 16.9841 4.53299C16.9639 5.39205 16.9781 6.25112 16.9781 7.17792C17.5679 7.17792 18.1011 7.17001 18.6344 7.18356C18.7604 7.20599 18.8833 7.2466 19 7.30435C18.9424 7.44771 18.9162 7.6272 18.8233 7.72654C17.8345 8.77187 16.8326 9.80139 15.8419 10.8445C15.6399 11.0567 15.4843 11.0488 15.2844 10.8388C14.2936 9.79575 13.2927 8.76622 12.301 7.72316C12.204 7.62382 12.1505 7.46916 12 7.20501Z" fill="#D5D5D5"/>
<path d="M12.3198 22.0658C12.3198 22.579 12.1231 23.0711 11.7731 23.434C11.423 23.7969 10.9482 24.0007 10.4531 24.0007C9.95803 24.0007 9.48324 23.7969 9.13317 23.434C8.7831 23.0711 8.58643 22.579 8.58643 22.0658C8.58643 21.5526 8.7831 21.0605 9.13317 20.6976C9.48324 20.3348 9.95803 20.1309 10.4531 20.1309C10.9482 20.1309 11.423 20.3348 11.7731 20.6976C12.1231 21.0605 12.3198 21.5526 12.3198 22.0658Z" fill="#D5D5D5"/>
<path d="M22.4317 22.0093C22.4306 22.5166 22.2391 23.0035 21.8978 23.3671C21.5565 23.7307 21.0921 23.9423 20.6029 23.9573C20.1137 23.9722 19.638 23.7893 19.2767 23.4472C18.9153 23.105 18.6965 22.6306 18.6666 22.1243C18.6512 21.863 18.6866 21.6013 18.7706 21.3545C18.8547 21.1078 18.9858 20.8811 19.156 20.6878C19.3263 20.4946 19.5323 20.3388 19.7618 20.2297C19.9912 20.1206 20.2395 20.0604 20.4919 20.0527C20.7442 20.045 20.9955 20.0899 21.2308 20.1848C21.4661 20.2797 21.6806 20.4227 21.8615 20.6052C22.0424 20.7877 22.1862 21.006 22.2841 21.2472C22.382 21.4884 22.4322 21.7476 22.4317 22.0093Z" fill="#D5D5D5"/>
</svg>
