<svg width="13" height="12" viewBox="0 0 13 12" fill="none" xmlns="http://www.w3.org/2000/svg">
<g clip-path="url(#clip0_45_1180)">
<path d="M8.93319 2.26831H12.5769C12.6141 2.26831 12.6517 2.26831 12.6889 2.26831C12.9526 2.27655 13.0483 2.40508 12.9779 2.66378C12.8774 3.02628 12.7724 3.38879 12.6694 3.75328C12.436 4.5743 12.2029 5.39511 11.97 6.21569C11.8794 6.53503 11.7131 6.66224 11.3868 6.66224C9.78703 6.66224 8.18724 6.66224 6.58744 6.66224C6.27564 6.66224 6.11541 6.54459 6.01426 6.2414C5.63085 5.09016 5.24786 3.93882 4.86531 2.78736C4.75131 2.44462 4.87173 2.26897 5.22656 2.26831C6.46157 2.26743 7.69711 2.26743 8.93319 2.26831Z" fill="white"/>
<path d="M4.4497 9.16753L3.83669 7.35795C3.17498 5.40041 2.51284 3.44298 1.85028 1.48566C1.80821 1.36108 1.75876 1.31692 1.6255 1.32088C1.30438 1.33307 0.983266 1.32747 0.662152 1.32417C0.275209 1.32088 -0.00223424 1.03878 1.35598e-05 0.654194C0.00226136 0.287402 0.289017 0.00728193 0.669858 0.00563417C1.28543 0.0033273 1.90101 0.0099186 2.51627 -0.000297534C2.66398 -0.0026044 2.72628 0.0422145 2.77509 0.186888C3.59436 2.62294 4.41748 5.05757 5.24446 7.49076C5.36616 7.84998 5.3668 7.84767 5.7303 7.84767C7.8017 7.84767 9.87321 7.84767 11.9448 7.84767C12.2194 7.84767 12.4368 7.95115 12.5672 8.2049C12.6872 8.43955 12.6683 8.67353 12.5212 8.88971C12.3893 9.08415 12.2001 9.16917 11.9696 9.16917C10.5567 9.16917 9.14375 9.16917 7.73084 9.16917H4.4497V9.16753Z" fill="white"/>
<path d="M11.7711 10.835C11.7704 11.0653 11.7032 11.2902 11.5779 11.4812C11.4526 11.6722 11.2749 11.8208 11.0672 11.9081C10.8596 11.9955 10.6314 12.0176 10.4115 11.9717C10.1916 11.9259 9.98996 11.8141 9.832 11.6506C9.67404 11.487 9.56691 11.2791 9.52418 11.053C9.48144 10.827 9.50502 10.593 9.59192 10.3807C9.67883 10.1684 9.82516 9.98732 10.0124 9.86041C10.1996 9.7335 10.4193 9.66646 10.6437 9.66776C10.9439 9.66959 11.2311 9.79348 11.4425 10.0123C11.6538 10.2311 11.772 10.527 11.7711 10.835Z" fill="white"/>
<path d="M5.83893 9.65886C6.06312 9.65972 6.28202 9.72884 6.4679 9.85747C6.65378 9.9861 6.79828 10.1685 6.8831 10.3814C6.96792 10.5944 6.98924 10.8284 6.94437 11.0539C6.89949 11.2793 6.79043 11.486 6.631 11.6477C6.47158 11.8095 6.26896 11.9191 6.04881 11.9626C5.82866 12.0061 5.60089 11.9815 5.39434 11.8921C5.18779 11.8026 5.01176 11.6522 4.88854 11.46C4.76533 11.2678 4.70047 11.0424 4.70218 10.8123C4.70481 10.5049 4.82583 10.2111 5.0388 9.99502C5.25178 9.77892 5.53943 9.65807 5.83893 9.65886Z" fill="white"/>
</g>
<defs>
<clipPath id="clip0_45_1180">
<rect width="13" height="12" fill="white"/>
</clipPath>
</defs>
</svg>
