<svg width="25" height="25" viewBox="0 0 25 25" fill="none" xmlns="http://www.w3.org/2000/svg">
<path d="M22.5597 6.04889C22.5597 6.96356 22.5597 7.87761 22.5597 8.79167C22.5535 10.1609 21.6341 11.0737 20.2715 11.07C18.4614 11.07 16.6513 11.07 14.8412 11.07C13.4102 11.07 12.5012 10.1751 12.4963 8.75404C12.4889 6.9358 12.4889 5.11756 12.4963 3.29932C12.5006 1.98128 13.3818 1.04317 14.6999 1.0222C16.5808 0.992599 18.4618 0.992599 20.3431 1.0222C21.7007 1.04441 22.5455 1.94736 22.5572 3.30426C22.5653 4.21893 22.5572 5.13298 22.5572 6.04704L22.5597 6.04889ZM13.9452 6.01003V7.02708C13.9452 7.36631 13.9347 7.70553 13.9489 8.04414C13.9896 9.03097 14.5882 9.62369 15.578 9.63356C16.8944 9.64589 18.2109 9.64589 19.5273 9.63356C20.4807 9.62369 21.1244 8.96004 21.1274 8.00713C21.1324 6.73247 21.1324 5.45781 21.1274 4.18316C21.1274 3.08777 20.5104 2.4562 19.4101 2.44448C18.1455 2.43091 16.8807 2.43091 15.6156 2.44448C14.5666 2.45558 13.9495 3.10072 13.9452 4.15848C13.944 4.77649 13.9452 5.39326 13.9452 6.01003Z" fill="#D5D5D5" stroke="#D5D5D5" stroke-width="0.1"/>
<path d="M6.03973 22.553C5.12398 22.553 4.20823 22.5635 3.29309 22.553C1.89848 22.5333 1.02098 21.6612 1.00987 20.271C0.996709 18.4417 0.996709 16.6119 1.00987 14.7817C1.01604 13.4341 1.93118 12.5114 3.27889 12.5034C5.10999 12.4923 6.94068 12.4923 8.77095 12.5034C10.1816 12.5133 11.0634 13.4224 11.0659 14.8409C11.0659 16.6505 11.0659 18.4595 11.0659 20.2685C11.0659 21.6193 10.1717 22.5339 8.81477 22.5567C8.35195 22.5641 7.88914 22.5567 7.42571 22.5567H6.03727L6.03973 22.553ZM6.03973 21.1234C6.68767 21.1234 7.33561 21.1234 7.98355 21.1234C8.97706 21.1178 9.62377 20.4721 9.62932 19.4815C9.63343 18.7414 9.63343 18.0013 9.62932 17.2612C9.62932 16.6135 9.64783 15.9659 9.59908 15.3202C9.53737 14.548 8.97829 13.9879 8.21126 13.9688C6.79196 13.9337 5.37266 13.9257 3.95337 13.9571C3.03515 13.9775 2.45015 14.622 2.43781 15.5638C2.42115 16.8689 2.41745 18.1746 2.43781 19.4791C2.45447 20.5084 3.09068 21.111 4.1206 21.1221C4.76422 21.1295 5.40476 21.1234 6.03912 21.1234H6.03973Z" fill="#D5D5D5" stroke="#D5D5D5" stroke-width="0.1"/>
<path d="M11.0682 6.0403C11.0682 6.96545 11.0713 7.89061 11.0682 8.81576C11.0627 10.1424 10.1426 11.0651 8.8134 11.0688C6.99259 11.0742 5.17177 11.0742 3.35096 11.0688C1.89526 11.0627 1.01283 10.1733 1.00974 8.71647C1.00522 6.91755 1.00522 5.11864 1.00974 3.31972C1.00974 1.96282 1.92858 1.02225 3.28494 1.01485C5.10575 1.00498 6.92656 1.00498 8.74737 1.01485C10.1667 1.02225 11.0577 1.91348 11.0682 3.3265C11.0756 4.23131 11.0682 5.13611 11.0682 6.0403ZM9.63166 6.0625C9.63166 5.44573 9.63166 4.82896 9.63166 4.21219C9.62795 3.07055 9.03123 2.45624 7.88469 2.44514C6.62995 2.43239 5.37521 2.43239 4.12047 2.44514C3.06649 2.45747 2.44446 3.10138 2.44014 4.15606C2.43583 5.36863 2.43336 6.5812 2.44014 7.79501C2.43743 8.04124 2.46478 8.28689 2.5216 8.5265C2.70303 9.22283 3.31024 9.63299 4.14454 9.63669C5.40956 9.64162 6.67458 9.63669 7.93899 9.63669C8.97755 9.63669 9.63474 8.97982 9.63042 7.9418C9.62919 7.31639 9.63166 6.68976 9.63166 6.0625Z" fill="#D5D5D5" stroke="#D5D5D5" stroke-width="0.1"/>
<path d="M21.589 20.5276C22.2845 21.224 22.9843 21.9178 23.6754 22.6209C23.8006 22.7407 23.8993 22.8855 23.9648 23.0459C24.0746 23.3543 23.929 23.7003 23.6563 23.8785C23.522 23.9679 23.3614 24.0093 23.2006 23.9958C23.0398 23.9824 22.8883 23.915 22.7707 23.8045C22.3493 23.4129 21.9482 22.999 21.5366 22.595C21.2003 22.2638 20.8627 21.9339 20.5085 21.586C19.2743 22.4556 17.8933 22.7579 16.3999 22.4193C15.1349 22.1312 14.1315 21.4324 13.3861 20.371C11.9977 18.3893 12.2852 15.5787 14.0439 13.9165C15.8915 12.1704 18.6301 12.0291 20.6467 13.5846C22.498 15.0131 23.3705 17.9785 21.589 20.5276ZM13.9483 17.5054C13.9069 19.4341 15.4873 21.0667 17.4453 21.1191C19.4379 21.1715 21.0861 19.5772 21.1281 17.5585C21.1682 15.6249 19.5705 13.9948 17.5909 13.9485C15.6113 13.9023 13.9915 15.4824 13.9483 17.5048V17.5054Z" fill="#D5D5D5" stroke="#D5D5D5" stroke-width="0.1"/>
</svg>
