<svg width="20" height="23" viewBox="0 0 20 23" fill="none" xmlns="http://www.w3.org/2000/svg">
<path d="M7.01295 22.9223C6.89626 22.878 6.77657 22.8398 6.66287 22.7884C6.47732 22.7082 6.31008 22.5912 6.17136 22.4443C6.03264 22.2974 5.92536 22.1238 5.85607 21.934C5.78679 21.7443 5.75697 21.5424 5.76841 21.3408C5.77985 21.1391 5.83233 20.942 5.92264 20.7613L5.98604 20.6339C5.8897 20.6285 5.8131 20.6208 5.7365 20.6202C4.89272 20.6202 4.04895 20.6291 3.20517 20.6202C2.03944 20.604 1.23037 19.4499 1.64149 18.3635C1.74931 18.095 1.91837 17.8555 2.13519 17.6638C3.18184 16.7292 4.24702 15.8162 5.31162 14.9019C5.42472 14.8044 5.44627 14.7225 5.41096 14.5784C4.41359 10.421 3.4212 6.26236 2.43379 2.10256C2.38652 1.90344 2.30034 1.86338 2.11722 1.86338C1.49785 1.87354 0.877895 1.86757 0.257925 1.86757H0V0.503023C0.077197 0.499435 0.149604 0.492859 0.222014 0.492859C1.08853 0.492859 1.95487 0.492859 2.82099 0.492859C3.26741 0.492859 3.4972 0.672247 3.60791 1.09919C3.96278 2.46911 4.31945 3.83903 4.66714 5.21075C4.70424 5.35606 4.75808 5.41406 4.91247 5.4332C5.36368 5.48881 5.81011 5.5767 6.26252 5.63172C6.41392 5.64966 6.45342 5.72978 6.50189 5.84758C7.27207 7.78377 8.67358 8.98985 10.737 9.31574C12.8117 9.64103 14.519 8.91092 15.8433 7.29105C15.9558 7.15292 16.057 7.09552 16.2335 7.12422C16.9845 7.24381 17.7374 7.35563 18.4896 7.47283C18.7457 7.5123 18.8073 7.58465 18.8031 7.84237C18.7577 10.3036 18.7112 12.7648 18.6637 15.226C18.6583 15.498 18.5566 15.5794 18.24 15.5794C14.4899 15.5794 10.7412 15.5782 6.99381 15.5758C6.80238 15.5677 6.61556 15.6359 6.47437 15.7653C5.38164 16.7155 4.27934 17.6537 3.18302 18.5967C3.13216 18.6403 3.06333 18.6774 3.0376 18.7336C2.99391 18.8364 2.93468 18.9656 2.96461 19.0565C2.98794 19.1276 3.13277 19.1695 3.23092 19.2012C3.30466 19.2139 3.3799 19.2155 3.45413 19.206H19.5865V20.6142H16.9791C17.039 20.8605 17.124 21.0776 17.1449 21.3006C17.2131 22.0439 16.7529 22.6807 16.0318 22.8763C15.9822 22.8894 15.9343 22.9085 15.8858 22.9247H15.3927C15.3167 22.8984 15.2407 22.8703 15.1641 22.8452C14.7905 22.7243 14.4795 22.4614 14.2981 22.1134C14.1167 21.7654 14.0796 21.3601 14.1947 20.9849C14.23 20.8689 14.2832 20.7589 14.3341 20.6327H8.5892C8.60775 20.6805 8.61853 20.7146 8.63349 20.7463C9.05838 21.654 8.61792 22.6072 7.64907 22.8804C7.61544 22.8926 7.58283 22.9074 7.55153 22.9247L7.01295 22.9223Z" fill="#43CC65"/>
<path d="M11.5425 7.99291C9.30977 7.95704 7.52347 6.13924 7.56416 3.94712C7.60605 1.70657 9.42886 -0.0370724 11.6879 0.000599036C13.8674 0.0388684 15.6076 1.88118 15.5717 4.11216C15.5376 6.25166 13.6914 8.027 11.5425 7.99291ZM9.07758 4.44343C9.46895 4.90864 9.84717 5.3589 10.2266 5.80857C10.5659 6.21159 11.0165 6.22714 11.3809 5.84146C11.878 5.31565 12.3733 4.78885 12.8668 4.26105L13.9607 3.09563L12.947 2.1389L10.8447 4.37407L10.1434 3.5453L9.07758 4.44343Z" fill="#43CC65"/>
</svg>
