<svg width="40" height="40" viewBox="0 0 40 40" fill="none" xmlns="http://www.w3.org/2000/svg">
    <g filter="url(#filter0_d_28_20)">
        <circle cx="18" cy="18" r="15" fill="white" />
    </g>
    <path
        d="M18.1257 12.0011C20.1842 12.0011 22.2416 12.0011 24.3001 12.0011C24.9949 12.0011 25.2897 12.3692 25.1491 13.0197C25.046 13.4954 24.6878 13.5779 24.2547 13.5779C21.5917 13.5728 18.9294 13.5728 16.2678 13.5779C14.8135 13.5779 13.3603 13.5833 11.9059 13.5779C11.2258 13.5779 10.9333 13.2576 11.0127 12.6288C11.0762 12.1206 11.4219 11.9979 11.8957 12C13.9724 12.0055 16.049 12.0011 18.1257 12.0011Z"
        fill="#3AB659" />
    <path
        d="M16.6974 18.7829C15.1104 18.7829 13.5234 18.7829 11.9365 18.7829C11.2473 18.7829 11.0002 18.5657 11.007 17.9825C11.0138 17.4298 11.2564 17.2148 11.9138 17.2137C15.1217 17.2137 18.3297 17.2137 21.5376 17.2137C22.1951 17.2137 22.4365 17.4309 22.4444 17.9858C22.4444 18.5679 22.2064 18.7796 21.5081 18.7818C19.9064 18.7883 18.3013 18.7829 16.6974 18.7829Z"
        fill="#3AB659" />
    <path
        d="M15.354 23.9954C14.2023 23.9954 13.0518 23.9954 11.9001 23.9954C11.2517 23.9954 10.9989 23.7641 11.0035 23.2146C11.008 22.6651 11.2597 22.423 11.8978 22.4219C14.2193 22.4168 16.5408 22.4168 18.8623 22.4219C19.4801 22.4219 19.7182 22.6391 19.7261 23.1821C19.734 23.7533 19.4994 23.9922 18.8657 23.9976C17.6959 24.0041 16.5261 23.9954 15.354 23.9954Z"
        fill="#3AB659" />
    <defs>
        <filter id="filter0_d_28_20" x="0" y="0" width="40" height="40" filterUnits="userSpaceOnUse"
            color-interpolation-filters="sRGB">
            <feFlood flood-opacity="0" result="BackgroundImageFix" />
            <feColorMatrix in="SourceAlpha" type="matrix"
                values="0 0 0 0 0 0 0 0 0 0 0 0 0 0 0 0 0 0 127 0" result="hardAlpha" />
            <feOffset dx="2" dy="2" />
            <feGaussianBlur stdDeviation="2.5" />
            <feComposite in2="hardAlpha" operator="out" />
            <feColorMatrix type="matrix" values="0 0 0 0 0 0 0 0 0 0 0 0 0 0 0 0 0 0 0.15 0" />
            <feBlend mode="normal" in2="BackgroundImageFix" result="effect1_dropShadow_28_20" />
            <feBlend mode="normal" in="SourceGraphic" in2="effect1_dropShadow_28_20"
                result="shape" />
        </filter>
    </defs>
</svg>
