<svg width="52" height="52" viewBox="0 0 52 52" fill="none" xmlns="http://www.w3.org/2000/svg">
<circle cx="26" cy="26" r="25" stroke="#0094FF" stroke-width="2"/>
<g clip-path="url(#clip0_59_2)">
<path d="M27.621 31.7332C27.621 33.3317 27.621 34.9303 27.621 36.5288C27.621 36.9663 27.5893 36.9991 27.1763 36.9991C25.9905 36.9991 24.8047 36.9991 23.619 36.9991C23.1871 36.9991 23.171 36.9818 23.1743 36.505C23.1743 33.3575 23.1762 30.2099 23.1799 27.0621C23.1799 26.5149 23.1726 26.5066 22.6724 26.5072C22.2094 26.5072 21.7464 26.5042 21.2828 26.5119C21.0821 26.5155 21.0049 26.4297 21.0049 26.2139C21.0112 25.2309 21.0112 24.248 21.0049 23.2653C21.0049 23.0269 21.1022 22.9506 21.3073 22.9536C21.8075 22.9608 22.3078 22.9614 22.808 22.9596C23.1415 22.9596 23.1765 22.9232 23.1776 22.5686C23.1776 21.6447 23.1665 20.7209 23.181 19.7982C23.2088 18.0214 24.197 16.7084 25.8012 16.262C26.4486 16.0911 27.1132 16.007 27.7799 16.0116C28.7249 16.0039 29.6698 16.0033 30.6147 16.0027C30.9654 16.0027 31.0038 16.0396 31.0038 16.4068C31.0038 17.37 30.9999 18.3332 31.0071 19.2964C31.0071 19.5753 30.9165 19.6838 30.6469 19.676C30.0177 19.6582 29.388 19.6641 28.7571 19.6689C27.985 19.6748 27.6338 20.048 27.6249 20.8693C27.6187 21.4349 27.6321 22.0017 27.6165 22.5668C27.6087 22.8499 27.6982 22.9536 27.9678 22.9488C28.8288 22.9333 29.6909 22.9399 30.5513 22.9387C30.9493 22.9387 30.996 22.9834 30.9515 23.3971C30.8509 24.3233 30.7342 25.2448 30.6364 26.1746C30.6097 26.4249 30.5063 26.5149 30.2767 26.5113C29.518 26.4994 28.7588 26.4982 27.9978 26.4976C27.6504 26.4976 27.6199 26.5328 27.6193 26.9101C27.6193 28.5186 27.6193 30.1279 27.6193 31.7379L27.621 31.7332Z" fill="#1271F2"/>
</g>
<defs>
<clipPath id="clip0_59_2">
<rect width="10" height="21" fill="white" transform="translate(21 16)"/>
</clipPath>
</defs>
</svg>
