<svg width="52" height="52" viewBox="0 0 52 52" fill="none" xmlns="http://www.w3.org/2000/svg">
<circle cx="26" cy="26" r="25" stroke="#904DFF" stroke-width="2"/>
<g clip-path="url(#clip0_59_3)">
<path d="M27.0433 18.007C27.8491 18.0368 28.6375 18.1679 29.4045 18.4151C30.5574 18.7866 31.5725 19.3855 32.4616 20.1922C32.4824 20.211 32.4865 20.2207 32.4641 20.2426C31.6549 21.0333 30.8464 21.8247 30.0387 22.6168C30.0113 22.6437 29.9999 22.6273 29.9824 22.6114C29.6302 22.2863 29.2284 22.0171 28.7914 21.8134C28.3244 21.5966 27.8333 21.4618 27.3204 21.4017C26.5197 21.3084 25.739 21.388 24.9807 21.659C24.2427 21.9228 23.6018 22.3345 23.0544 22.8851C22.4929 23.4466 22.0695 24.126 21.8165 24.8717C21.8152 24.8741 21.8136 24.8764 21.8118 24.8784C21.789 24.8855 21.7735 24.8701 21.7587 24.8589C21.5529 24.7018 21.3456 24.5466 21.1403 24.3889C20.9894 24.2731 20.837 24.159 20.6857 24.0437C20.4466 23.8616 20.2072 23.6797 19.9673 23.4982C19.6432 23.2518 19.3188 23.0055 18.9944 22.7594C18.9681 22.7395 18.938 22.7218 18.9257 22.6881C18.9218 22.6642 18.9356 22.6455 18.9455 22.626C19.0592 22.4018 19.1873 22.1853 19.3231 21.9734C19.4634 21.7544 19.613 21.5417 19.7739 21.3365C19.8935 21.1843 20.0185 21.0366 20.1463 20.891C20.3345 20.6768 20.5387 20.4779 20.7462 20.2826C20.9455 20.0949 21.1587 19.9223 21.3769 19.7558C21.5805 19.6002 21.793 19.4559 22.01 19.3188C22.2235 19.1838 22.4432 19.059 22.669 18.9445C22.9012 18.8272 23.1364 18.7158 23.3784 18.6191C23.7377 18.475 24.1064 18.3542 24.4819 18.2573C24.7428 18.1903 25.0065 18.137 25.2722 18.0927C25.4708 18.0595 25.6708 18.0357 25.8718 18.018C25.946 18.0114 26.0211 18.0108 26.0957 18.0097C26.1789 18.0082 26.2621 18.0014 26.3455 18.0047H26.4998C26.5507 18.0024 26.6016 18.0098 26.6525 18.0006H26.7543C26.8046 18.0097 26.8553 18.0024 26.9058 18.0047H26.9669C26.9923 18.0056 27.018 18.0009 27.0433 18.007Z" fill="#904DFF"/>
<path d="M32.4247 32.9367C31.9037 33.4088 31.3172 33.8066 30.6825 34.1183C30.0001 34.4553 29.2813 34.6878 28.5318 34.8307C28.1493 34.9041 27.7623 34.9527 27.3733 34.9763C27.2663 34.9827 27.159 34.9875 27.0518 34.9929C27.0154 34.9991 26.9785 34.9942 26.9416 34.9958C26.8822 34.9984 26.822 34.9904 26.7625 34.9999H26.508C26.4604 34.991 26.4122 34.9981 26.3638 34.9958C26.2045 34.9971 26.0449 34.9919 25.886 34.9819C25.7173 34.9713 25.5496 34.9477 25.3823 34.9238C25.1114 34.8846 24.8431 34.8323 24.5775 34.7672C24.3102 34.7025 24.0464 34.6246 23.7871 34.5337C23.5957 34.4665 23.4066 34.3934 23.2199 34.3146C23.0046 34.2232 22.795 34.1207 22.5878 34.0131C22.305 33.8651 22.031 33.7016 21.7672 33.5233C21.5868 33.4021 21.4117 33.2739 21.2418 33.1388C21.0839 33.0136 20.9304 32.8836 20.7815 32.7487C20.6345 32.615 20.492 32.4768 20.3541 32.3342C20.0616 32.0306 19.7929 31.706 19.5503 31.3629C19.3618 31.0973 19.1886 30.8216 19.0313 30.5372C18.9998 30.4799 18.9695 30.4221 18.9397 30.3641C18.9312 30.3481 18.9219 30.3323 18.9249 30.3131C18.9364 30.2792 18.9666 30.2616 18.9927 30.2417C19.275 30.0284 19.5569 29.8145 19.8382 29.6001C20.1309 29.3777 20.4236 29.1554 20.7164 28.9331C20.9807 28.7325 21.2447 28.5318 21.5083 28.3311C21.5896 28.2694 21.6713 28.2081 21.7522 28.1459C21.7692 28.1329 21.7858 28.1144 21.8122 28.1228C21.8965 28.3575 21.9898 28.5886 22.1058 28.8103C22.6615 29.8729 23.4827 30.6698 24.5875 31.1813C25.0388 31.39 25.5138 31.5235 26.0079 31.5899C26.4329 31.6471 26.8583 31.6469 27.2844 31.6065C27.9666 31.5419 28.615 31.365 29.2226 31.0511C29.3637 30.9782 29.5009 30.8982 29.6336 30.8114C29.6641 30.8126 29.6856 30.8314 29.7076 30.8483C30.0231 31.0898 30.3394 31.3303 30.6563 31.57C30.9617 31.8017 31.2667 32.0338 31.5712 32.2664C31.837 32.469 32.103 32.6714 32.3691 32.8736C32.3909 32.89 32.4239 32.901 32.4247 32.9367Z" fill="#904DFF"/>
<path d="M26.7627 35C26.8221 34.9834 26.8822 34.9944 26.942 34.9929C26.9448 34.995 26.9456 34.9968 26.9443 34.9982C26.9439 34.9987 26.9434 34.9991 26.9428 34.9995C26.9422 34.9998 26.9415 35 26.9408 35H26.7627Z" fill="#904DFF"/>
<path d="M26.6524 18C26.6015 18.0166 26.5498 18.0055 26.4985 18.0073C26.4957 18.0051 26.4949 18.0034 26.4962 18.0019C26.4966 18.0014 26.4971 18.0009 26.4977 18.0006C26.4983 18.0003 26.499 18.0001 26.4997 18H26.6524Z" fill="#904DFF"/>
<path d="M26.9075 18.0076C26.8566 18.0057 26.8045 18.0166 26.7542 18H26.9068C26.9127 18.0021 26.9132 18.0046 26.9075 18.0076Z" fill="#904DFF"/>
<path d="M26.3555 35C26.3553 34.9976 26.355 34.9953 26.3545 34.993C26.4054 34.9925 26.4576 34.9847 26.5082 35H26.3555Z" fill="#904DFF"/>
<path d="M26.9409 35C26.9409 34.9977 26.9416 34.9953 26.942 34.993H27.0523C27.0519 34.9953 27.0517 34.9976 27.0516 35H26.9409Z" fill="#904DFF"/>
<path d="M26.4998 18C26.4998 18.0024 26.4991 18.0049 26.4986 18.0073H26.4145C26.4089 18.0045 26.409 18.0021 26.415 18.0002L26.4998 18Z" fill="#904DFF"/>
<path d="M26.415 18C26.415 18.0024 26.4148 18.0048 26.4145 18.0071H26.3381C26.3386 18.0048 26.3388 18.0025 26.3388 18.0001L26.415 18Z" fill="#904DFF"/>
<path d="M27.0433 18.007H26.967C26.9608 18.0053 26.9605 18.003 26.9663 18.0001H27.0427C27.0428 18.0023 27.0431 18.0047 27.0433 18.007Z" fill="#904DFF"/>
<path d="M26.9664 18C26.9664 18.0023 26.9664 18.0046 26.967 18.0069L26.9077 18.0076C26.9072 18.0051 26.907 18.0026 26.907 18H26.9664Z" fill="#904DFF"/>
<path d="M32.4247 32.9367C32.2715 32.8212 32.1179 32.7061 31.9652 32.5901C31.2058 32.0128 30.4466 31.4351 29.6875 30.857C29.6688 30.8426 29.6472 30.8312 29.6336 30.811C30.1595 30.4614 30.5891 30.023 30.9077 29.4828C31.1219 29.1198 31.2692 28.7319 31.3587 28.3223C31.3676 28.2816 31.3556 28.2762 31.3176 28.2762C29.7912 28.2771 28.2648 28.2777 26.7384 28.278C26.6932 28.278 26.6841 28.2656 26.6841 28.2236C26.6853 27.1931 26.6853 26.1626 26.6841 25.1321C26.6841 25.0937 26.6914 25.0811 26.734 25.0811C29.4278 25.0823 32.1216 25.0823 34.8155 25.0811C34.849 25.0811 34.8645 25.0868 34.8703 25.1232C34.967 25.7132 35.0095 26.3106 34.9976 26.908C34.9706 28.124 34.7431 29.2988 34.2426 30.4173C33.8176 31.3678 33.2248 32.2032 32.4498 32.9135C32.4418 32.9222 32.4331 32.9294 32.4247 32.9367Z" fill="#904DFF"/>
<path d="M18.9346 30.3091C18.8235 30.1041 18.7277 29.8923 18.6378 29.6776C18.1469 28.5041 17.9345 27.2368 18.0168 25.9713C18.0903 24.8241 18.3958 23.7387 18.9215 22.7118C18.9252 22.7045 18.93 22.6979 18.9346 22.6909L20.8493 24.145C21.1594 24.3804 21.4696 24.616 21.7797 24.8517C21.7908 24.8601 21.8012 24.8697 21.8119 24.8786C21.746 25.0827 21.6866 25.2884 21.6432 25.4983C21.5488 25.9501 21.5183 26.4124 21.5526 26.8723C21.5833 27.2901 21.6683 27.7024 21.8055 28.0992C21.8082 28.107 21.8099 28.1151 21.812 28.1232C21.2569 28.5451 20.7016 28.967 20.1461 29.3891C19.7424 29.696 19.3386 30.0026 18.9346 30.3091Z" fill="#904DFF"/>
</g>
<defs>
<clipPath id="clip0_59_3">
<rect width="17" height="17" fill="white" transform="translate(18 18)"/>
</clipPath>
</defs>
</svg>
