<svg width="19" height="22" viewBox="0 0 19 22" fill="none" xmlns="http://www.w3.org/2000/svg">
<g clip-path="url(#clip0_52_3437)">
<path d="M5.5715 12.0755C5.80838 12.9056 6.384 13.3527 7.11123 13.635C7.8621 13.9393 8.66685 14.0878 9.47672 14.0715C10.2866 14.0551 11.0847 13.8744 11.8228 13.5401C12.3804 13.3204 12.8295 12.8903 13.0735 12.3423C13.1363 12.1988 13.475 12.0731 13.6586 12.1051C14.8735 12.3049 15.9934 12.8864 16.8565 13.7655C18.1108 15.0333 18.7421 16.5703 18.6923 18.3575C18.6378 20.2728 17.6121 21.3627 15.5975 21.441C12.8615 21.5596 10.1196 21.5596 7.38009 21.5679C5.98249 21.575 4.58253 21.5133 3.18493 21.4493C2.83243 21.4206 2.48411 21.3534 2.14621 21.2489C0.93575 20.9227 0.259459 20.1341 0.05811 18.8864C-0.438155 15.8124 2.09054 12.4146 5.16407 12.0636C5.28369 12.0695 5.40213 12.0755 5.5715 12.0755Z" fill="#43CC65"/>
<path d="M11.3195 11.8442C10.0072 12.8072 8.39524 12.7574 7.16701 11.7256C6.00393 10.7436 5.15352 9.59086 5.29447 7.91628C5.35843 7.18217 5.41292 6.40892 4.84203 5.78155C4.76386 5.69498 4.78636 5.48269 4.81597 5.33919C5.02691 4.30565 5.58366 3.37507 6.39423 2.70122C7.2048 2.02738 8.22069 1.65057 9.27407 1.63306C11.4972 1.60816 13.3875 3.07519 13.8826 5.21585C13.9205 5.38069 13.9844 5.62501 13.9051 5.71633C13.2383 6.47891 13.468 7.39447 13.4147 8.26496C13.397 8.56264 13.397 9.0548 13.2489 9.1141C12.7657 9.29855 12.2546 9.39961 11.7376 9.41296C11.2378 9.43431 10.7273 9.26947 10.2299 9.30149C9.90029 9.32606 9.59391 9.48063 9.37805 9.73124C9.16219 9.98185 9.0545 10.308 9.07864 10.6381C9.12601 11.3319 9.64479 11.824 10.3625 11.843C10.6373 11.8513 10.9085 11.8442 11.3195 11.8442Z" fill="#43CC65"/>
<path d="M14.1062 7.98628C14.1595 7.36246 13.8776 6.56313 14.606 5.9915C14.6735 5.93932 14.6403 5.73177 14.6226 5.60013C14.2672 2.96255 11.9991 0.946426 9.39579 0.952355C6.72141 0.959471 4.4213 2.95781 4.0873 5.5776C4.06834 5.72466 4.05176 5.95829 4.13349 6.01996C4.74938 6.48012 4.62739 7.13358 4.63212 7.7574C4.63212 8.1713 4.64989 8.58757 4.63212 9.00147C4.60133 9.62766 4.16547 10.0463 3.57564 10.0487C2.98581 10.051 2.54521 9.63952 2.52152 9.00384C2.49546 8.31361 2.50967 7.62101 2.52152 6.9296C2.52152 6.7778 2.54402 6.56551 2.63996 6.48486C3.22387 6.01048 3.16583 5.29061 3.33283 4.66442C4.08256 1.84065 6.74865 -0.147031 9.61846 0.00239973C11.0682 0.0736066 12.449 0.643411 13.5278 1.61567C14.6067 2.58792 15.3176 3.90309 15.5405 5.33922C15.5902 5.6618 15.8058 5.95947 15.9467 6.26782C16.0119 6.41014 16.1362 6.54772 16.141 6.69003C16.1658 7.53562 16.218 8.38715 16.1516 9.22799C16.1066 9.81386 15.518 10.1103 14.9092 10.0392C14.6628 10.0107 14.4023 10.1068 14.1488 10.1483C14.131 10.1483 14.1156 10.1696 14.0979 10.1768C12.9466 10.6594 11.7634 11.033 10.5174 11.1635C10.1017 11.2074 9.73453 11.0603 9.74401 10.5705C9.75348 10.1127 10.0899 9.91466 10.5162 9.95142C10.8978 9.98519 11.2751 10.0567 11.6426 10.1649C12.056 10.2835 13.7579 9.82572 14.0244 9.46637C14.078 9.36767 14.1031 9.25594 14.0967 9.14378C14.1133 8.79629 14.1062 8.4405 14.1062 7.98628Z" fill="#43CC65"/>
</g>
<defs>
<clipPath id="clip0_52_3437">
<rect width="18.6994" height="21.5762" fill="white"/>
</clipPath>
</defs>
</svg>
