<svg width="22" height="23" viewBox="0 0 22 23" fill="none" xmlns="http://www.w3.org/2000/svg">
<path d="M20.8428 7.91114C20.6221 7.73002 20.389 7.56502 20.1451 7.41741C19.8999 7.22358 19.6431 7.04516 19.3763 6.88315C19.287 6.78877 19.1789 6.71448 19.0593 6.66513C18.5521 6.27578 18.0262 5.91418 17.4894 5.56667C17.2975 5.42661 17.1092 5.28082 16.9125 5.14693C16.3216 4.7448 15.7543 4.30745 15.1447 3.93307C14.7086 3.58336 14.2424 3.27769 13.7763 2.97114C13.4274 2.69675 13.0633 2.45054 12.6918 2.21226C12.264 1.88898 11.8279 1.57714 11.3701 1.2979C11.2829 1.17854 11.1385 1.12922 11.0304 1.03364C10.9719 0.982108 10.9122 0.99488 10.8529 1.0376C10.5331 1.26663 10.2133 1.49537 9.89354 1.72381C9.314 2.10259 8.74842 2.50163 8.19287 2.91301C7.39632 3.44154 6.61285 3.98944 5.84246 4.55673C5.53896 4.74259 5.24751 4.94781 4.96989 5.17115C4.46274 5.49267 3.97609 5.84415 3.49162 6.1987L2.26278 7.05889C2.06343 7.17554 1.87461 7.30965 1.6985 7.45969C1.67115 7.46328 1.64503 7.47338 1.62229 7.48916C1.59955 7.50493 1.58083 7.52592 1.56768 7.55042C1.54103 7.55392 1.51557 7.56372 1.49337 7.57903C1.47117 7.59433 1.45286 7.61471 1.43992 7.63851C1.32237 7.68927 1.21595 7.76308 1.12682 7.85565C1.09019 7.85565 1.05661 7.86049 1.04746 7.90497C0.978121 7.97148 1.00864 8.05737 1.00864 8.134C1.00864 11.1613 1.00864 14.1888 1.00864 17.2164C1.00864 18.7337 1.01126 20.251 1.00559 21.7683C1.00559 21.9353 1.0383 22.0079 1.2197 21.9943C1.46477 21.9762 1.71202 21.9833 1.9584 21.9793C2.29245 21.9982 2.6273 21.9982 2.96136 21.9793C3.03374 21.9828 3.10613 21.9894 3.17939 21.9894C5.1321 21.9894 7.08438 21.9894 9.03666 21.9974C9.2499 21.9974 9.2983 21.9375 9.2983 21.7287C9.2922 18.8849 9.29147 16.0407 9.29612 13.196H9.28086C9.28348 13.1925 9.28522 13.189 9.28784 13.1854L9.29612 13.1978C9.31044 13.1959 9.32416 13.1908 9.33624 13.1828C9.44204 13.1731 9.54535 13.1448 9.64149 13.0991C10.3305 12.9463 11.0164 12.7802 11.691 12.5776L11.7782 12.5657C11.8702 12.5602 11.9597 12.5335 12.0399 12.4878C12.2806 12.459 12.5167 12.3999 12.7428 12.3116L12.8235 12.3015C12.9152 12.2958 13.0045 12.2698 13.0851 12.2253L13.9189 12.0346C13.9847 12.0258 14.0528 12.0231 14.1064 11.9685C14.0838 11.9562 14.059 11.9485 14.0335 11.9461C14.0079 11.9437 13.9821 11.9465 13.9577 11.9544L10.5128 11.9588L7.72192 11.9566C7.59676 11.954 7.6347 12.0495 7.6347 12.1134C7.6347 12.9564 7.6347 13.7994 7.6347 14.6424C7.6347 16.46 7.6347 18.2778 7.6347 20.096C7.6347 20.1973 7.65694 20.3118 7.50388 20.3241H4.4078C3.92158 20.321 3.43537 20.3171 2.94915 20.3149C2.66614 20.3149 2.6657 20.3149 2.6657 20.0233C2.6657 17.215 2.6657 14.4066 2.6657 11.5981C2.6657 10.704 2.66047 9.80945 2.65785 8.91491C2.65393 8.80216 2.73504 8.75547 2.81266 8.70041C3.09959 8.49737 3.38391 8.29124 3.66954 8.086C4.08511 7.83142 4.47713 7.54293 4.86829 7.25224C4.87332 7.24926 4.878 7.24571 4.88224 7.24167C5.49273 6.83646 6.098 6.42509 6.68058 5.98024C7.24747 5.61732 7.79648 5.23149 8.33328 4.82629C8.40524 4.77916 8.47849 4.73379 8.5487 4.68446C9.14989 4.26252 9.75094 3.84014 10.3518 3.41731C10.4506 3.36269 10.5455 3.30117 10.6357 3.23321C10.835 3.06143 11.0282 2.96101 11.2344 3.21867C11.2462 3.23277 11.2737 3.23409 11.2938 3.24113C11.6426 3.51773 12.0141 3.76746 12.3865 4.01279L13.0372 4.46644H13.0402C13.1572 4.57234 13.2872 4.66264 13.427 4.73511C13.7924 5.01729 14.1703 5.28156 14.5608 5.52791C14.6916 5.66621 14.8782 5.73051 14.9968 5.88026C15.1033 5.96117 15.2151 6.03474 15.3313 6.10048C15.4687 6.19166 15.6073 6.28151 15.7438 6.37444C16.1639 6.66161 16.5836 6.94936 17.0028 7.23771C17.2921 7.46551 17.5942 7.67624 17.9076 7.86886C18.045 7.98514 18.1832 8.10009 18.3485 8.17717C18.5735 8.38065 18.8364 8.52952 19.0802 8.7057C19.1561 8.76119 19.2367 8.8114 19.2328 8.92284C19.2293 9.01092 19.2228 9.09901 19.2228 9.1871C19.2228 12.8069 19.2228 16.4269 19.2228 20.0471C19.2228 20.1396 19.2494 20.2391 19.1822 20.3224L16.1298 20.3276C15.5489 20.3241 14.9685 20.3232 14.3855 20.3157C14.2573 20.3157 14.2499 20.3836 14.2507 20.4827C14.2538 20.9231 14.2595 21.3636 14.2507 21.804C14.2468 21.9656 14.3052 21.9974 14.4518 21.9974C16.5213 21.9935 18.5911 21.9944 20.6609 22C20.8506 22 20.8838 21.9353 20.8833 21.7622C20.8796 17.2147 20.8778 12.6672 20.8781 8.11947C20.882 8.0468 20.9178 7.96708 20.8428 7.91114ZM1.13249 7.94594H1.13728L1.13249 7.94946V7.94594ZM1.08888 21.3116V21.8639H1.0819C1.08655 21.6798 1.08888 21.4961 1.08888 21.3129V21.3116ZM1.97933 21.9119L1.99154 21.9075V21.9119H1.97933ZM2.517 18.957L2.51962 18.9402C2.53619 18.9367 2.52791 18.9455 2.517 18.957ZM9.4675 12.8441L9.44351 12.8397C9.45189 12.8392 9.46022 12.8412 9.4675 12.8454V12.8441ZM3.09479 20.4104L3.09218 20.4166C3.09238 20.4146 3.09238 20.4125 3.09218 20.4104H3.09479ZM2.6234 21.941C2.61163 21.941 2.6077 21.9489 2.6125 21.9599C2.62427 21.9868 2.58939 21.9498 2.61774 21.9401L2.6487 21.9357L2.67006 21.9397C2.65484 21.941 2.63954 21.9413 2.62428 21.9405L2.6234 21.941ZM2.74769 21.8397L2.72109 21.8432C2.70757 21.8432 2.69448 21.8392 2.68097 21.8362L2.74769 21.8397ZM8.10348 3.13014C8.10893 3.13441 8.11461 3.13838 8.12048 3.14203L8.10522 3.14468C8.10348 3.13895 8.10304 3.13455 8.1026 3.1297L8.10348 3.13014ZM10.3335 2.6135C10.3406 2.61355 10.3476 2.61588 10.3533 2.62015C10.359 2.62443 10.3632 2.63043 10.3654 2.63729C10.3553 2.6287 10.3446 2.62076 10.3335 2.6135ZM20.0635 21.8V21.8036C20.0429 21.813 20.0207 21.8187 19.9981 21.8203C20.0196 21.815 20.0408 21.8083 20.0613 21.8H20.0635ZM16.9517 21.6904C16.9527 21.6967 16.9543 21.7029 16.9565 21.7089C16.9426 21.7089 16.9282 21.7089 16.9129 21.7089C16.9234 21.7027 16.9369 21.6965 16.9496 21.6904H16.9517ZM18.6494 21.5913C18.6311 21.5817 18.6167 21.5662 18.6084 21.5472C18.6201 21.5629 18.6331 21.5776 18.6472 21.5913H18.6494ZM14.4631 20.4104H14.4662C14.4701 20.4228 14.4648 20.4188 14.4609 20.4104H14.4631Z" fill="#D5D5D5" stroke="#D5D5D5" stroke-width="0.5"/>
</svg>
