<svg width="21" height="21" viewBox="0 0 21 21" fill="none" xmlns="http://www.w3.org/2000/svg">
<g clip-path="url(#clip0_52_3461)">
<path d="M7.19472 1.73327C8.09118 2.06994 8.44345 2.74643 8.44187 3.67187C8.43555 7.62336 8.43555 11.5748 8.44187 15.5263C8.44187 15.697 8.45135 15.8677 8.45688 16.0392C8.66857 16.5725 8.66687 17.1668 8.45214 17.6989C8.4158 18.1035 8.47504 18.5129 8.37315 18.9167C8.14647 19.8485 7.24843 20.442 6.32906 20.1575C4.57247 19.6143 2.82694 19.0363 1.09246 18.4236C0.36818 18.1691 0.0016945 17.5787 0.0016945 16.8003C-0.00251796 11.7851 -0.00251796 6.76957 0.0016945 1.75382C0.0016945 0.61974 0.776523 -0.0314654 2.04816 0.0151621C3.70681 0.363683 5.27226 1.00382 6.87879 1.51673C7.00592 1.55025 7.11755 1.62676 7.19472 1.73327Z" fill="#43CC65"/>
<path d="M13.2993 9.25362C12.7994 9.25362 12.2994 9.26152 11.7986 9.25362C11.2979 9.24572 10.9717 8.92723 10.9717 8.44515C10.9717 7.96306 11.301 7.59321 11.805 7.58688C12.7259 7.57424 13.6476 7.58689 14.5694 7.58056C15.2526 7.58056 15.1586 7.66908 15.1641 7.00523C15.1697 6.38642 15.1641 5.76762 15.1641 5.14803C15.1641 4.75999 15.3031 4.45256 15.672 4.28818C16.063 4.11511 16.3828 4.25025 16.6695 4.53396C17.7485 5.61456 18.8279 6.69464 19.9079 7.77418C20.3107 8.1804 20.3533 8.61743 19.9545 9.02918C18.8558 10.1633 17.7311 11.2728 16.6071 12.3832C16.3426 12.644 16.0132 12.7199 15.6593 12.5531C15.296 12.3808 15.1602 12.0734 15.1625 11.6838C15.1673 11.0255 15.1467 10.3664 15.1712 9.70804C15.1839 9.36031 15.1049 9.21095 14.7226 9.2394C14.2487 9.27496 13.7748 9.24809 13.3009 9.24809L13.2993 9.25362Z" fill="#43CC65"/>
<path d="M7.19453 1.73315L2.04639 0.010307C5.05882 0.010307 8.07125 -0.00945048 11.0837 0.010307C12.3719 0.0182099 13.4532 1.18627 13.4927 2.56218C13.5156 3.33825 13.51 4.11591 13.4927 4.89198C13.4761 5.62142 12.9982 6.02131 12.3869 5.85061C12.0038 5.74313 11.7716 5.39856 11.7677 4.90225C11.7629 4.15226 11.7677 3.40068 11.7677 2.65148C11.7677 2.06033 11.496 1.69443 10.921 1.67783C9.71173 1.64464 8.50171 1.66914 7.28773 1.67388C7.2593 1.67467 7.2277 1.7126 7.19453 1.73315Z" fill="#43CC65"/>
<path d="M8.44971 17.6979L8.45445 16.0383C9.204 16.0383 9.95513 16.0383 10.7023 16.0383C11.4495 16.0383 11.7694 15.7143 11.7694 14.9564C11.7694 13.9701 11.7646 12.9806 11.7694 11.9967C11.7694 11.4048 12.0853 11.0144 12.5482 10.9844C13.0473 10.9527 13.4446 11.2088 13.4612 11.7509C13.5023 13.1 13.6397 14.4609 13.3759 15.7981C13.1595 16.8997 12.1027 17.6948 10.9709 17.7011C10.1321 17.7019 9.29088 17.6979 8.44971 17.6979Z" fill="#43CC65"/>
</g>
<defs>
<clipPath id="clip0_52_3461">
<rect width="20.2277" height="20.2277" fill="white"/>
</clipPath>
</defs>
</svg>
