<svg width="18" height="23" viewBox="0 0 18 23" fill="none" xmlns="http://www.w3.org/2000/svg">
<g clip-path="url(#clip0_52_3446)">
<path d="M9.5376 22.9011V15.4924H17.5624C17.5725 15.6248 17.5908 15.7554 17.5908 15.8852C17.5908 17.5011 17.5908 19.1168 17.5908 20.7321C17.5908 22.1654 16.8385 22.9093 15.3972 22.9165C13.5875 22.922 11.7772 22.9235 9.96626 22.9211C9.83282 22.9211 9.69846 22.9093 9.5376 22.9011Z" fill="#43CC65"/>
<path d="M0.024684 15.486H7.98827V22.8884C7.83563 22.9002 7.6894 22.9193 7.54224 22.9193C5.80567 22.9193 4.06908 22.9274 2.3389 22.9193C0.769585 22.9193 -0.00273469 22.1291 7.27515e-06 20.5606C7.27515e-06 19.0357 7.27515e-06 17.5099 7.27515e-06 15.985C0.00274924 15.8289 0.0164581 15.6665 0.024684 15.486Z" fill="#43CC65"/>
<path d="M17.5652 13.9656H9.54492V6.78098H12.721C13.6496 6.78098 14.5783 6.77554 15.5069 6.78098C16.7919 6.79006 17.5816 7.57383 17.588 8.85383C17.5953 10.425 17.588 11.9962 17.588 13.571C17.5889 13.6881 17.5752 13.806 17.5652 13.9656Z" fill="#43CC65"/>
<path d="M7.99751 6.84993V13.9538H0.0686578C0.0476361 13.9157 0.0211314 13.8894 0.0211314 13.8631C0.0211314 12.067 -0.0145144 10.2699 0.0494648 8.47645C0.0814544 7.56113 0.910441 6.82907 1.91309 6.80639C3.90467 6.76012 5.89808 6.79369 7.89057 6.79732C7.91708 6.79732 7.94358 6.82635 7.99751 6.84993Z" fill="#43CC65"/>
<path d="M8.7579 5.86747C8.49102 5.10909 8.25795 4.42963 8.01208 3.7547C7.8591 3.29695 7.68028 2.8481 7.47649 2.41029C7.33049 2.13144 7.1362 1.88027 6.9025 1.66825C6.64385 1.42785 6.30018 1.34984 5.97297 1.53581C5.81536 1.61878 5.69067 1.75222 5.61915 1.91445C5.54763 2.07667 5.53349 2.25814 5.57904 2.42935C5.66073 2.76378 5.8204 3.07451 6.04518 3.33651C6.79557 4.16564 7.58799 4.95759 8.34934 5.78582C7.08256 4.99751 5.83131 4.18198 4.87162 3.02082C4.37715 2.423 4.32322 1.67913 4.50602 0.950686C4.70253 0.15874 5.46023 -0.184163 6.27642 0.112476C7.01309 0.37918 7.52584 0.901705 7.88321 1.58026C8.42247 2.5999 8.82005 4.53486 8.7579 5.86747Z" fill="#43CC65"/>
<path d="M9.41384 5.67878C10.1688 4.89137 10.9466 4.12392 11.6668 3.30657C11.9117 3.02623 12.0636 2.67779 12.1019 2.3087C12.1183 2.0547 11.9008 1.67369 11.675 1.5485C11.4721 1.43602 11.0353 1.49498 10.847 1.65192C10.5283 1.92352 10.2779 2.26521 10.1158 2.64979C9.73282 3.56964 9.4239 4.51944 9.08481 5.46197C9.05811 5.55007 9.01364 5.63186 8.9541 5.70237C8.9541 4.65642 9.04093 3.61592 9.4111 2.63438C9.65718 1.99094 9.9849 1.38125 10.3863 0.820068C10.7336 0.330204 11.2839 0.0553294 11.9145 0.0190433C12.5132 -0.0154286 13.0113 0.29936 13.1694 0.864517C13.3915 1.64558 13.3257 2.41485 12.7947 3.05439C11.8633 4.16565 10.6587 4.95396 9.41384 5.67878Z" fill="#43CC65"/>
<path d="M9.79883 5.99083C11.7657 4.61015 13.7491 3.4635 16.0533 2.74231C15.7608 3.25757 15.4939 3.72566 15.2014 4.23911L16.6921 4.86596C15.9536 5.28416 12.5097 5.8466 9.79883 5.99083Z" fill="#43CC65"/>
<path d="M1.64339 2.74414C3.9503 3.46261 5.92634 4.60471 7.89507 5.98631C5.49311 5.80488 3.199 5.61166 0.927734 4.89047L2.49248 4.2346C2.21189 3.74202 1.94775 3.28208 1.64339 2.74414Z" fill="#43CC65"/>
</g>
<defs>
<clipPath id="clip0_52_3446">
<rect width="17.5934" height="22.9247" fill="white"/>
</clipPath>
</defs>
</svg>
