<svg width="22" height="22" viewBox="0 0 22 22" fill="none" xmlns="http://www.w3.org/2000/svg">
<g clip-path="url(#clip0_52_3421)">
<path d="M3.31394 7.04222C3.28603 6.98969 3.25648 6.92897 3.22283 6.87111C2.84894 6.23467 2.47752 5.59617 2.09706 4.96342C2.02483 4.84319 2.01498 4.74923 2.08516 4.62571C2.74182 3.47183 3.62503 2.54241 4.79388 1.8912C4.94861 1.80503 5.06393 1.79764 5.22112 1.89653C5.86957 2.304 6.52541 2.69916 7.18535 3.08652C7.26374 3.13248 7.38358 3.12058 7.48249 3.11361C7.54734 3.10909 7.60562 3.05205 7.67292 3.0418C8.08621 2.97614 8.2319 2.70696 8.31029 2.32165C8.43342 1.71311 8.61523 1.11606 8.76503 0.512448C8.79622 0.385242 8.85286 0.316716 8.98337 0.280606C10.2643 -0.0743393 11.5443 -0.105935 12.831 0.252703C13.0235 0.306458 13.1031 0.402887 13.1466 0.592054C13.314 1.32451 13.5024 2.05287 13.6744 2.78451C13.7064 2.92033 13.7638 3.00733 13.9009 3.03728C13.9211 3.04116 13.9403 3.04927 13.9572 3.06108C14.3721 3.35981 14.7369 3.25681 15.1346 2.98271C15.6173 2.64992 16.1442 2.38156 16.6478 2.0779C16.6883 2.04832 16.7369 2.03201 16.787 2.0312C16.8372 2.03039 16.8863 2.04513 16.9277 2.07339C18.106 2.73486 19.0483 3.63269 19.7025 4.82268C19.7764 4.95686 19.7846 5.05575 19.6968 5.19199C19.2864 5.84853 18.8928 6.51123 18.4873 7.16901C18.4204 7.27775 18.3986 7.36721 18.4594 7.48908C18.5386 7.64818 18.6035 7.81408 18.6531 7.98477C18.6941 8.12347 18.7762 8.17599 18.9084 8.20882C19.6241 8.38896 20.3374 8.57812 21.0536 8.75908C21.1882 8.79273 21.2633 8.84854 21.2998 8.98765C21.6503 10.2835 21.6836 11.5773 21.3072 12.8748C21.2633 13.0262 21.1861 13.0927 21.0343 13.128C20.3017 13.2983 19.5732 13.485 18.8411 13.6557C18.6794 13.6934 18.564 13.7534 18.5254 13.9241C18.5141 13.9779 18.4928 14.0291 18.4627 14.0751C18.2419 14.3898 18.2985 14.6647 18.5066 14.9803C18.8579 15.5088 19.1563 16.073 19.4842 16.6175C19.5523 16.7304 19.5621 16.8203 19.4957 16.9372C18.8283 18.1108 17.9328 19.055 16.7381 19.7037C16.6055 19.7755 16.5103 19.769 16.3843 19.6906C15.7453 19.2938 15.0981 18.9109 14.4595 18.5133C14.313 18.4226 14.1944 18.4349 14.0265 18.4723C13.5073 18.5827 13.3153 18.9097 13.2274 19.3992C13.1265 19.9631 12.9484 20.5125 12.8096 21.0693C12.7801 21.1875 12.7276 21.2548 12.6044 21.2889C11.2956 21.6528 9.98888 21.6853 8.67884 21.2963C8.54382 21.2552 8.48184 21.1896 8.44942 21.0501C8.27335 20.2983 8.08005 19.5498 7.90604 18.7977C7.87238 18.6524 7.80836 18.5683 7.668 18.5289C7.58777 18.5102 7.5113 18.478 7.44186 18.4337C7.15457 18.2285 6.9112 18.2991 6.63048 18.4805C6.0797 18.8367 5.50266 19.1522 4.93876 19.4879C4.84354 19.5445 4.7672 19.5654 4.65845 19.5043C3.46825 18.835 2.51569 17.9298 1.86067 16.7218C1.79213 16.5962 1.80362 16.5059 1.87626 16.3882C2.28298 15.7316 2.67903 15.0677 3.08411 14.4099C3.15429 14.2962 3.18999 14.1969 3.11201 14.073C3.06666 14.004 3.03541 13.9268 3.02008 13.8457C2.96221 13.4764 2.72007 13.3533 2.38189 13.2815C1.75437 13.1456 1.13752 12.9622 0.513695 12.8083C0.385236 12.7763 0.315466 12.7218 0.27976 12.5917C-0.0768883 11.2901 -0.107668 9.98929 0.271552 8.68564C0.312593 8.54325 0.386057 8.48047 0.531753 8.44436C1.27049 8.27283 2.00595 8.08449 2.74511 7.91091C2.90927 7.87234 3.00202 7.79683 3.05702 7.63598C3.12556 7.44066 3.22283 7.25108 3.31394 7.04222ZM10.7916 14.7008C11.5657 14.6997 12.322 14.4691 12.965 14.0383C13.608 13.6074 14.1087 12.9957 14.404 12.2803C14.6993 11.5649 14.7758 10.7781 14.6238 10.0192C14.4719 9.26037 14.0983 8.56361 13.5504 8.01701C13.0024 7.47041 12.3047 7.09852 11.5454 6.94836C10.7861 6.79819 9.99925 6.87649 9.28444 7.17336C8.56962 7.47023 7.95889 7.97234 7.52945 8.61621C7.10001 9.26008 6.87115 10.0168 6.8718 10.7907C6.87462 11.8284 7.2888 12.8227 8.02356 13.5557C8.75832 14.2886 9.75373 14.7004 10.7916 14.7008Z" fill="#43CC65"/>
</g>
<defs>
<clipPath id="clip0_52_3421">
<rect width="21.5762" height="21.5762" fill="white"/>
</clipPath>
</defs>
</svg>
