<svg width="52" height="52" viewBox="0 0 52 52" fill="none" xmlns="http://www.w3.org/2000/svg">
<circle cx="26" cy="26" r="25" stroke="#FF004D" stroke-width="2"/>
<g clip-path="url(#clip0_59_4)">
<path d="M18.7045 32.3237C19.5373 32.2485 20.3527 32.0575 21.1229 31.7575C21.7745 31.5009 22.3925 31.1872 22.9488 30.7779C22.904 30.6917 22.8274 30.7266 22.7696 30.72C21.1072 30.5394 19.937 29.7507 19.2728 28.3387C19.1622 28.1043 19.1725 28.1006 19.4466 28.1297C19.9558 28.1882 20.4725 28.1577 20.9693 28.0398C20.7561 27.9737 20.602 27.9286 20.4507 27.8785C18.8805 27.3595 17.7636 25.962 17.7246 24.4811C17.7197 24.3037 17.7596 24.2811 17.9284 24.3604C18.3686 24.565 18.8477 24.6899 19.3396 24.7282C19.3879 24.7319 19.4367 24.7282 19.4923 24.7282C19.4694 24.6264 19.3785 24.6075 19.3185 24.564C18.5776 24.0209 18.0622 23.2612 17.8584 22.4118C17.6547 21.5624 17.7748 20.6747 18.1989 19.8967C18.314 19.6844 18.3126 19.6861 18.4842 19.8675C20.6195 22.1289 23.3187 23.3746 26.5642 23.6328C26.8258 23.6534 26.8258 23.6509 26.7882 23.4185C26.4097 21.2199 28.0708 19.2262 30.4878 19.0201C31.697 18.9171 32.7755 19.2476 33.6676 20.019C33.8212 20.1521 33.9542 20.1857 34.1602 20.1369C34.8862 19.9652 35.5857 19.737 36.2405 19.3978C36.3023 19.3658 36.3591 19.3157 36.4675 19.3264C36.1715 20.1759 35.5857 20.811 34.8105 21.325C35.5647 21.2655 36.2723 21.073 36.9982 20.848C36.8536 21.0216 36.7156 21.2006 36.5629 21.3682C36.1455 21.8251 35.695 22.2533 35.1683 22.6064C35.0304 22.6992 34.999 22.8047 34.9999 22.9538C35.0223 26.2124 33.7459 28.9841 31.1883 31.2312C29.3387 32.8574 27.0743 33.7221 24.527 33.945C22.135 34.1544 19.8609 33.7676 17.7282 32.7355C17.5253 32.6373 17.331 32.5244 17.1326 32.4181C17.1487 32.3056 17.2454 32.3524 17.3063 32.3516C17.7004 32.3475 18.0945 32.3516 18.4887 32.3483C18.5608 32.3479 18.6378 32.3709 18.7045 32.3237Z" fill="#FF004D"/>
<path d="M18.7046 32.3237C18.3884 32.4201 18.0619 32.3585 17.7408 32.3803C17.5379 32.3943 17.3288 32.3183 17.1326 32.4173C17.0811 32.3971 17.0184 32.3889 16.9983 32.2916C17.5742 32.368 18.1394 32.3351 18.7046 32.3237Z" fill="#FF004D"/>
</g>
<defs>
<clipPath id="clip0_59_4">
<rect width="20" height="15" fill="white" transform="translate(17 19)"/>
</clipPath>
</defs>
</svg>
