<svg width="19" height="25" viewBox="0 0 19 25" fill="none" xmlns="http://www.w3.org/2000/svg">
<path d="M13.6253 4.14209V2.91521C13.6723 2.91189 13.7113 2.90707 13.7505 2.90677C14.2997 2.90677 14.8489 2.90134 15.3984 2.90677C16.6868 2.92214 17.7654 3.83318 17.9563 5.10888C18.0243 5.56817 17.9943 6.04253 17.9943 6.50845C17.9967 9.82353 17.9967 13.1386 17.9943 16.4537C17.9943 18.0708 17.9775 19.688 17.9991 21.3057C18.0195 22.8274 16.8147 24.0018 15.3307 24.0015C11.4411 24.0015 7.55154 24.0009 3.6621 23.9997C2.32371 23.9979 1.25198 23.0956 1.03296 21.7997C1.00947 21.6458 0.998851 21.4903 1.0012 21.3347C0.999601 16.0764 0.999601 10.818 1.0012 5.55973C1.0012 4.06825 2.14244 2.91852 3.62795 2.90767C4.16216 2.90436 4.69638 2.90767 5.2306 2.90767C5.27464 2.90767 5.31839 2.91189 5.37022 2.9146V4.14299H5.20513C4.67091 4.14299 4.1364 4.13727 3.60248 4.1454C2.95111 4.15505 2.40041 4.59475 2.26439 5.21045C2.23854 5.34342 2.22719 5.47883 2.23053 5.61428C2.22873 9.54657 2.22873 13.4789 2.23053 17.4114C2.23053 18.6971 2.2506 19.983 2.22334 21.269C2.20446 22.1776 2.89358 22.7701 3.71603 22.7686C6.61693 22.7602 9.51783 22.765 12.4187 22.765C13.3775 22.765 14.3363 22.765 15.2951 22.765C15.6732 22.765 16.0141 22.6622 16.303 22.4091C16.6281 22.1237 16.7686 21.7599 16.768 21.3274C16.765 18.8315 16.765 16.3354 16.768 13.8393C16.768 11.1022 16.7545 8.36519 16.7755 5.62815C16.7827 4.67642 16.0351 4.11074 15.2888 4.13877C14.7387 4.15866 14.1892 4.14209 13.6253 4.14209Z" fill="#D5D5D5" stroke="#D5D5D5" stroke-width="0.4"/>
<path d="M7.93161 2.62469C7.97446 1.4843 8.83316 1.0003 9.48423 1C10.3501 1 10.9344 1.58526 11.068 2.6274H11.6879C11.9624 2.6274 12.2368 2.62409 12.5113 2.6274C12.7279 2.62951 12.8205 2.72414 12.8208 2.94173C12.822 3.67466 12.822 4.408 12.8208 5.14174C12.8208 5.35119 12.7261 5.44913 12.5212 5.44913C10.5053 5.44913 8.4894 5.44913 6.47337 5.44913C6.27533 5.44913 6.17675 5.35089 6.17615 5.15379C6.17436 4.41041 6.17436 3.66753 6.17615 2.92516C6.17615 2.72444 6.27862 2.62861 6.48835 2.62831C6.91261 2.62831 7.33657 2.62831 7.76083 2.62831L7.93161 2.62469ZM9.50041 3.2205C9.62962 3.21942 9.75561 3.17986 9.86248 3.10681C9.96935 3.03376 10.0523 2.93049 10.1009 2.81005C10.1494 2.68961 10.1614 2.55739 10.1353 2.4301C10.1092 2.30281 10.0462 2.18616 9.95421 2.09487C9.86224 2.00358 9.74544 1.94175 9.61856 1.91719C9.49167 1.89263 9.3604 1.90644 9.24131 1.95687C9.12222 2.00731 9.02067 2.0921 8.94946 2.20056C8.87826 2.30901 8.8406 2.43626 8.84125 2.56622C8.84164 2.65277 8.85902 2.73839 8.89239 2.81816C8.92576 2.89793 8.97447 2.97029 9.03572 3.03108C9.09696 3.09187 9.16954 3.1399 9.24928 3.1724C9.32903 3.20491 9.41437 3.22125 9.50041 3.2205Z" fill="#D5D5D5" stroke="#D5D5D5" stroke-width="0.4"/>
<path d="M14.9749 9.78374H8.80273V8.86456H14.9749V9.78374Z" fill="#D5D5D5" stroke="#D5D5D5" stroke-width="0.4"/>
<path d="M8.79932 14.3622V13.4436H14.9714V14.3622H8.79932Z" fill="#D5D5D5" stroke="#D5D5D5" stroke-width="0.4"/>
<path d="M14.977 18.0232V18.946H8.80127V18.0232H14.977Z" fill="#D5D5D5" stroke="#D5D5D5" stroke-width="0.4"/>
<path d="M5.84488 10.9308C5.80413 10.9062 5.765 10.879 5.72773 10.8494C5.18023 10.3431 4.63323 9.83638 4.08673 9.32927C3.99924 9.24851 3.98875 9.17618 4.07295 9.08818C4.23114 8.92102 4.38685 8.75135 4.54005 8.57916C4.62245 8.48694 4.69585 8.49478 4.78154 8.57555C5.051 8.8295 5.32225 9.08165 5.5953 9.33199C5.73672 9.46188 5.76219 9.45916 5.88084 9.3136C6.43154 8.63813 6.98183 7.96256 7.53173 7.28689C7.67645 7.10908 7.69742 7.10606 7.87689 7.25464C8.0267 7.3788 8.17651 7.50598 8.32961 7.62563C8.43358 7.70609 8.45096 7.78113 8.36287 7.88872C7.56109 8.86798 6.76062 9.84984 5.96144 10.8343C5.92561 10.87 5.88659 10.9023 5.84488 10.9308Z" fill="#D5D5D5" stroke="#D5D5D5" stroke-width="0.4"/>
<path d="M8.44197 16.9277C8.40931 16.9778 8.38864 17.0182 8.36107 17.051C7.56469 18.0299 6.76841 19.0091 5.97223 19.9888C5.88444 20.097 5.81403 20.0976 5.71455 20.0044C5.17764 19.5022 4.63833 19.0017 4.09662 18.503C3.99775 18.4126 3.98846 18.3366 4.08344 18.2384C4.23325 18.0838 4.37946 17.9253 4.51968 17.7622C4.61196 17.6553 4.69046 17.6489 4.79413 17.7481C5.05839 18.0006 5.32805 18.2468 5.59651 18.4949C5.73673 18.6242 5.7613 18.6226 5.88144 18.4753C6.43553 17.796 6.98913 17.1165 7.54222 16.4368C7.67525 16.2738 7.69982 16.2717 7.86581 16.4085C8.02401 16.539 8.1834 16.6683 8.3392 16.8003C8.37715 16.8396 8.41154 16.8823 8.44197 16.9277Z" fill="#D5D5D5" stroke="#D5D5D5" stroke-width="0.4"/>
<path d="M8.44221 12.3469C8.40625 12.4003 8.38228 12.4427 8.35232 12.4807C7.55913 13.456 6.76605 14.4314 5.97306 15.407C5.88497 15.5158 5.81396 15.5149 5.71509 15.4224C5.17797 14.9201 4.63866 14.4195 4.09715 13.9207C3.99828 13.8303 3.98989 13.754 4.08457 13.6561C4.23418 13.5012 4.37959 13.3424 4.52081 13.1799C4.61309 13.0735 4.69189 13.0675 4.79556 13.1666C5.06342 13.4225 5.33667 13.6726 5.60902 13.9237C5.73396 14.0388 5.76572 14.0364 5.87329 13.9044C6.43357 13.2175 6.99346 12.5301 7.55294 11.8424C7.67279 11.6966 7.70125 11.6917 7.84297 11.8084C8.00986 11.944 8.17675 12.0796 8.34064 12.2188C8.37831 12.2583 8.41231 12.3012 8.44221 12.3469Z" fill="#D5D5D5" stroke="#D5D5D5" stroke-width="0.4"/>
</svg>
